<svg xmlns="http://www.w3.org/2000/svg" viewBox="0 0 1200 300" preserveAspectRatio="xMidYMid slice">
<defs>
  <radialGradient id="a"><stop offset="0" stop-color="#7c3aed" stop-opacity=".85"/><stop offset="1" stop-color="#7c3aed" stop-opacity="0"/></radialGradient>
  <radialGradient id="b"><stop offset="0" stop-color="#0ea5e9" stop-opacity=".7"/><stop offset="1" stop-color="#0ea5e9" stop-opacity="0"/></radialGradient>
  <radialGradient id="d"><stop offset="0" stop-color="#f472b6" stop-opacity=".5"/><stop offset="1" stop-color="#f472b6" stop-opacity="0"/></radialGradient>
</defs>
<rect width="1200" height="300" fill="#05030f"/>
<ellipse cx="300" cy="120" rx="360" ry="200" fill="url(#a)">
  <animate attributeName="rx" values="360;410;360" dur="11s" repeatCount="indefinite"/></ellipse>
<ellipse cx="880" cy="200" rx="330" ry="180" fill="url(#b)">
  <animate attributeName="ry" values="180;215;180" dur="9s" repeatCount="indefinite"/></ellipse>
<ellipse cx="620" cy="60" rx="240" ry="130" fill="url(#d)"/>
<g fill="#fff">
  <circle cx="0" cy="0" r="0.6" opacity="0.25"/><circle cx="977" cy="13" r="1.1" opacity="0.62"/><circle cx="754" cy="26" r="1.6" opacity="0.49"/><circle cx="531" cy="39" r="0.6" opacity="0.36"/><circle cx="308" cy="52" r="1.1" opacity="0.73"/><circle cx="85" cy="65" r="1.6" opacity="0.6"/><circle cx="1062" cy="78" r="0.6" opacity="0.47"/><circle cx="839" cy="91" r="1.1" opacity="0.33999999999999997"/><circle cx="616" cy="104" r="1.6" opacity="0.71"/><circle cx="393" cy="117" r="0.6" opacity="0.5800000000000001"/><circle cx="170" cy="130" r="1.1" opacity="0.45"/><circle cx="1147" cy="143" r="1.6" opacity="0.32"/><circle cx="924" cy="156" r="0.6" opacity="0.69"/><circle cx="701" cy="169" r="1.1" opacity="0.56"/><circle cx="478" cy="182" r="1.6" opacity="0.43"/><circle cx="255" cy="195" r="0.6" opacity="0.3"/><circle cx="32" cy="208" r="1.1" opacity="0.6699999999999999"/><circle cx="1009" cy="221" r="1.6" opacity="0.54"/><circle cx="786" cy="234" r="0.6" opacity="0.41000000000000003"/><circle cx="563" cy="247" r="1.1" opacity="0.28"/><circle cx="340" cy="260" r="1.6" opacity="0.65"/><circle cx="117" cy="273" r="0.6" opacity="0.52"/><circle cx="1094" cy="286" r="1.1" opacity="0.39"/><circle cx="871" cy="299" r="1.6" opacity="0.26"/><circle cx="648" cy="12" r="0.6" opacity="0.63"/><circle cx="425" cy="25" r="1.1" opacity="0.5"/><circle cx="202" cy="38" r="1.6" opacity="0.37"/><circle cx="1179" cy="51" r="0.6" opacity="0.74"/><circle cx="956" cy="64" r="1.1" opacity="0.61"/><circle cx="733" cy="77" r="1.6" opacity="0.48"/><circle cx="510" cy="90" r="0.6" opacity="0.35"/><circle cx="287" cy="103" r="1.1" opacity="0.72"/><circle cx="64" cy="116" r="1.6" opacity="0.5900000000000001"/><circle cx="1041" cy="129" r="0.6" opacity="0.45999999999999996"/><circle cx="818" cy="142" r="1.1" opacity="0.33"/><circle cx="595" cy="155" r="1.6" opacity="0.7"/><circle cx="372" cy="168" r="0.6" opacity="0.5700000000000001"/><circle cx="149" cy="181" r="1.1" opacity="0.44"/><circle cx="1126" cy="194" r="1.6" opacity="0.31"/><circle cx="903" cy="207" r="0.6" opacity="0.6799999999999999"/><circle cx="680" cy="220" r="1.1" opacity="0.55"/><circle cx="457" cy="233" r="1.6" opacity="0.42000000000000004"/><circle cx="234" cy="246" r="0.6" opacity="0.29"/><circle cx="11" cy="259" r="1.1" opacity="0.6599999999999999"/><circle cx="988" cy="272" r="1.6" opacity="0.53"/><circle cx="765" cy="285" r="0.6" opacity="0.4"/><circle cx="542" cy="298" r="1.1" opacity="0.27"/><circle cx="319" cy="11" r="1.6" opacity="0.64"/><circle cx="96" cy="24" r="0.6" opacity="0.51"/><circle cx="1073" cy="37" r="1.1" opacity="0.38"/><circle cx="850" cy="50" r="1.6" opacity="0.25"/><circle cx="627" cy="63" r="0.6" opacity="0.62"/><circle cx="404" cy="76" r="1.1" opacity="0.49"/><circle cx="181" cy="89" r="1.6" opacity="0.36"/><circle cx="1158" cy="102" r="0.6" opacity="0.73"/><circle cx="935" cy="115" r="1.1" opacity="0.6"/><circle cx="712" cy="128" r="1.6" opacity="0.47"/><circle cx="489" cy="141" r="0.6" opacity="0.33999999999999997"/><circle cx="266" cy="154" r="1.1" opacity="0.71"/><circle cx="43" cy="167" r="1.6" opacity="0.5800000000000001"/>
</g></svg>