<svg xmlns="http://www.w3.org/2000/svg" viewBox="0 0 256 256">
<defs><filter id="g"><feGaussianBlur stdDeviation="2" result="b"/><feMerge><feMergeNode in="b"/><feMergeNode in="SourceGraphic"/></feMerge></filter>
<linearGradient id="p" x1="0" y1="0" x2="1" y2="1">
  <stop offset="0" stop-color="#22d3ee"/><stop offset=".5" stop-color="#f0abfc"/><stop offset="1" stop-color="#818cf8"/>
</linearGradient></defs>
<g filter="url(#g)">
<polygon points="0,-17 13,11 -13,11" fill="url(#p)" opacity="0.9" transform="translate(128.0 20.0) rotate(0) scale(1)"/><polygon points="0,-17 13,11 -13,11" fill="url(#p)" opacity="0.55" transform="translate(182.0 34.5) rotate(30) scale(0.7)"/><polygon points="0,-17 13,11 -13,11" fill="url(#p)" opacity="0.9" transform="translate(221.5 74.0) rotate(60) scale(1)"/><polygon points="0,-17 13,11 -13,11" fill="url(#p)" opacity="0.55" transform="translate(236.0 128.0) rotate(90) scale(0.7)"/><polygon points="0,-17 13,11 -13,11" fill="url(#p)" opacity="0.9" transform="translate(221.5 182.0) rotate(120) scale(1)"/><polygon points="0,-17 13,11 -13,11" fill="url(#p)" opacity="0.55" transform="translate(182.0 221.5) rotate(150) scale(0.7)"/><polygon points="0,-17 13,11 -13,11" fill="url(#p)" opacity="0.9" transform="translate(128.0 236.0) rotate(180) scale(1)"/><polygon points="0,-17 13,11 -13,11" fill="url(#p)" opacity="0.55" transform="translate(74.0 221.5) rotate(210) scale(0.7)"/><polygon points="0,-17 13,11 -13,11" fill="url(#p)" opacity="0.9" transform="translate(34.5 182.0) rotate(240) scale(1)"/><polygon points="0,-17 13,11 -13,11" fill="url(#p)" opacity="0.55" transform="translate(20.0 128.0) rotate(270) scale(0.7)"/><polygon points="0,-17 13,11 -13,11" fill="url(#p)" opacity="0.9" transform="translate(34.5 74.0) rotate(300) scale(1)"/><polygon points="0,-17 13,11 -13,11" fill="url(#p)" opacity="0.55" transform="translate(74.0 34.5) rotate(330) scale(0.7)"/>
</g>
<circle cx="128" cy="128" r="88" fill="none" stroke="url(#p)" stroke-width="1.6" opacity=".5"/></svg>