<svg xmlns="http://www.w3.org/2000/svg" viewBox="0 0 1200 300" preserveAspectRatio="xMidYMid slice">
<rect width="1200" height="300" fill="#04040c"/>
<g fill="none" stroke="#818cf8" stroke-width="2">
<ellipse cx="600" cy="150" rx="40" ry="10" opacity="0.75" transform="rotate(0 600 150)"/><ellipse cx="600" cy="150" rx="82" ry="21" opacity="0.71" transform="rotate(7 600 150)"/><ellipse cx="600" cy="150" rx="124" ry="32" opacity="0.67" transform="rotate(14 600 150)"/><ellipse cx="600" cy="150" rx="166" ry="43" opacity="0.63" transform="rotate(21 600 150)"/><ellipse cx="600" cy="150" rx="208" ry="54" opacity="0.59" transform="rotate(28 600 150)"/><ellipse cx="600" cy="150" rx="250" ry="65" opacity="0.55" transform="rotate(35 600 150)"/><ellipse cx="600" cy="150" rx="292" ry="76" opacity="0.51" transform="rotate(42 600 150)"/><ellipse cx="600" cy="150" rx="334" ry="87" opacity="0.47" transform="rotate(49 600 150)"/><ellipse cx="600" cy="150" rx="376" ry="98" opacity="0.43" transform="rotate(56 600 150)"/><ellipse cx="600" cy="150" rx="418" ry="109" opacity="0.39" transform="rotate(63 600 150)"/><ellipse cx="600" cy="150" rx="460" ry="120" opacity="0.35" transform="rotate(70 600 150)"/><ellipse cx="600" cy="150" rx="502" ry="131" opacity="0.31" transform="rotate(77 600 150)"/><ellipse cx="600" cy="150" rx="544" ry="142" opacity="0.27" transform="rotate(84 600 150)"/><ellipse cx="600" cy="150" rx="586" ry="153" opacity="0.23" transform="rotate(91 600 150)"/><ellipse cx="600" cy="150" rx="628" ry="164" opacity="0.19" transform="rotate(98 600 150)"/><ellipse cx="600" cy="150" rx="670" ry="175" opacity="0.15" transform="rotate(105 600 150)"/>
</g>
<ellipse cx="600" cy="150" rx="46" ry="14" fill="#c7d2fe" opacity=".85">
  <animate attributeName="opacity" values=".85;.45;.85" dur="5s" repeatCount="indefinite"/></ellipse>
<ellipse cx="600" cy="150" rx="120" ry="34" fill="#6366f1" opacity=".16"/></svg>